HIERARCHY
ROOT mixamorig:Hips
{
  OFFSET 0.000000 0.000000 0.000000
  CHANNELS 6 Xposition Yposition Zposition Xrotation Yrotation Zrotation
  JOINT mixamorig:Spine
  {
    OFFSET 1.150465 23.972063 -4.895022
    CHANNELS 3 Xrotation Yrotation Zrotation
    JOINT mixamorig:Spine2
    {
      OFFSET 1.150465 23.972063 -4.895022
      CHANNELS 3 Xrotation Yrotation Zrotation
      JOINT mixamorig:Neck
      {
        OFFSET 0.000000 4.496838 0.000000
        CHANNELS 3 Xrotation Yrotation Zrotation
        JOINT mixamorig:Head
        {
          OFFSET 0.000000 5.139168 0.000000
          CHANNELS 3 Xrotation Yrotation Zrotation
          End Site
          {
            OFFSET 0.000000 1.541751 0.000000
          }
        }
      }
      JOINT mixamorig:LeftShoulder
      {
        OFFSET 14.657595 6.279607 -3.868204
        CHANNELS 3 Xrotation Yrotation Zrotation
        JOINT mixamorig:LeftArm
        {
          OFFSET 10.000000 -2.000000 0.000000
          CHANNELS 3 Xrotation Yrotation Zrotation
          JOINT mixamorig:LeftForeArm
          {
            OFFSET 24.587725 0.000000 0.000000
            CHANNELS 3 Xrotation Yrotation Zrotation
            JOINT mixamorig:LeftHand
            {
              OFFSET 26.596884 0.000000 0.000000
              CHANNELS 3 Xrotation Yrotation Zrotation
              End Site
              {
                OFFSET 7.979065 0.000000 0.000000
              }
            }
          }
        }
      }
      JOINT mixamorig:RightShoulder
      {
        OFFSET -14.657595 6.279607 3.868204
        CHANNELS 3 Xrotation Yrotation Zrotation
        JOINT mixamorig:RightArm
        {
          OFFSET -10.000000 -2.000000 0.000000
          CHANNELS 3 Xrotation Yrotation Zrotation
          JOINT mixamorig:RightForeArm
          {
            OFFSET -24.587725 0.000000 0.000000
            CHANNELS 3 Xrotation Yrotation Zrotation
            JOINT mixamorig:RightHand
            {
              OFFSET -26.596884 0.000000 0.000000
              CHANNELS 3 Xrotation Yrotation Zrotation
              End Site
              {
                OFFSET -7.979065 0.000000 0.000000
              }
            }
          }
        }
      }
    }
  }
  JOINT mixamorig:LeftUpLeg
  {
    OFFSET 8.975169 -0.526327 1.981741
    CHANNELS 3 Xrotation Yrotation Zrotation
    JOINT mixamorig:LeftLeg
    {
      OFFSET 1.377157 -38.030245 -0.046855
      CHANNELS 3 Xrotation Yrotation Zrotation
      JOINT mixamorig:LeftFoot
      {
        OFFSET -3.515420 -39.917539 14.783880
        CHANNELS 3 Xrotation Yrotation Zrotation
        JOINT mixamorig:LeftToeBase
        {
          OFFSET 3.761979 -2.436963 -8.094106
          CHANNELS 3 Xrotation Yrotation Zrotation
          End Site
          {
            OFFSET 1.128594 -0.731089 -2.428232
          }
        }
      }
    }
  }
  JOINT mixamorig:RightUpLeg
  {
    OFFSET -8.975169 0.526327 -1.981741
    CHANNELS 3 Xrotation Yrotation Zrotation
    JOINT mixamorig:RightLeg
    {
      OFFSET 2.711921 -37.956722 -0.361912
      CHANNELS 3 Xrotation Yrotation Zrotation
      JOINT mixamorig:RightFoot
      {
        OFFSET -0.836660 -40.893921 12.301154
        CHANNELS 3 Xrotation Yrotation Zrotation
        JOINT mixamorig:RightToeBase
        {
          OFFSET -2.003346 -0.846234 -8.993126
          CHANNELS 3 Xrotation Yrotation Zrotation
          End Site
          {
            OFFSET -0.601004 -0.253870 -2.697938
          }
        }
      }
    }
  }
}
MOTION
Frames: 14
Frame Time: 0.041667
0.023138 0.196622 0.000000 10.352348 -0.496939 -0.070109 0.000839 0.017510 0.085947 -10.801621 15.345757 0.186800 4.395605 -2.930762 6.332408 4.028027 -3.403945 6.114893 0.000000 0.000000 0.000000 8.535166 -10.854450 -76.303822 1.166898 -11.382497 -11.661785 0.000000 0.000000 0.000000 0.000000 0.000000 0.000000 -3.909831 -19.011085 23.039731 6.620359 -21.257316 -34.251696 0.000000 0.000000 0.000000 -9.780515 -0.364221 -0.125847 -0.869637 0.360564 0.737068 -1.113847 7.719978 -2.849398 0.000000 0.000000 0.000000 -10.727691 -0.692020 0.869871 0.588948 -0.250882 -0.831816 -0.424650 1.030739 -0.005664 0.000000 0.000000 0.000000
0.043468 0.195754 0.000000 10.351652 -0.496740 -0.068608 0.000839 0.017508 0.085936 -10.802002 15.338214 0.185574 4.392643 -2.927322 6.331687 4.025556 -3.400134 6.114575 0.000000 0.000000 0.000000 8.522808 -10.847171 -76.266157 1.172874 -11.358872 -11.736525 0.000000 0.000000 0.000000 0.000000 0.000000 0.000000 -3.916540 -19.040003 23.042349 6.633856 -21.290937 -34.263524 0.000000 0.000000 0.000000 -9.807145 -0.362685 -0.099721 -0.808124 0.338676 0.692915 -1.068126 7.000063 -2.622302 0.000000 0.000000 0.000000 -10.688526 -0.692184 0.832347 0.542099 -0.229455 -0.766851 -0.403725 1.069951 -0.014124 0.000000 0.000000 0.000000
0.081647 0.194218 0.000000 10.356857 -0.501484 -0.109074 0.000839 0.017525 0.086022 -10.795265 15.471406 0.222514 4.438780 -3.055184 6.325610 4.055927 -3.532226 6.095747 0.000000 0.000000 0.000000 8.366670 -10.427586 -77.439943 0.940025 -11.120824 -9.612548 0.000000 0.000000 0.000000 0.000000 0.000000 0.000000 -3.751273 -18.586137 22.632427 6.338069 -20.734017 -33.674604 0.000000 0.000000 0.000000 -8.932050 -0.364874 -0.535570 -1.968197 0.731288 1.423197 -3.034448 16.509580 -6.475625 0.000000 0.000000 0.000000 -11.415234 -0.662917 1.695247 1.661708 -0.692462 -2.320164 -1.248315 1.040407 0.168821 0.000000 0.000000 0.000000
0.116139 0.193098 0.000000 10.357940 -0.503971 -0.130976 0.000838 0.017529 0.086040 -10.790949 15.556612 0.242824 4.460159 -3.147917 6.316478 4.066239 -3.626323 6.077761 0.000000 0.000000 0.000000 8.116666 -10.003696 -78.063745 0.798318 -10.641029 -8.549080 0.000000 0.000000 0.000000 0.000000 0.000000 0.000000 -3.655558 -18.395233 22.297137 6.204161 -20.558341 -33.275470 0.000000 0.000000 0.000000 -8.433666 -0.358993 -0.732626 -2.492201 0.912661 1.745059 -4.410499 19.429600 -8.148439 0.000000 0.000000 0.000000 -11.847213 -0.645288 2.146354 2.369738 -0.924188 -3.152233 -1.820851 1.308740 0.262401 0.000000 0.000000 0.000000
0.153366 0.192363 0.000000 10.359265 -0.504903 -0.138812 0.000838 0.017533 0.086062 -10.787033 15.633880 0.249504 4.478310 -3.215609 6.310703 4.076220 -3.695359 6.065355 0.000000 0.000000 0.000000 7.852327 -9.642637 -78.271230 0.734176 -10.117199 -8.278487 0.000000 0.000000 0.000000 0.000000 0.000000 0.000000 -3.588886 -18.275232 22.043174 6.158619 -20.561467 -33.039314 0.000000 0.000000 0.000000 -8.219691 -0.360093 -0.876798 -2.713591 1.022090 1.960374 -5.367909 20.729452 -9.123722 0.000000 0.000000 0.000000 -12.261472 -0.644282 2.384021 2.965266 -1.045187 -3.613764 -2.178906 1.566653 0.309567 0.000000 0.000000 0.000000
0.197987 0.191865 0.000000 10.355363 -0.504218 -0.134253 0.000837 0.017520 0.085997 -10.787409 15.626459 0.246199 4.496558 -3.239159 6.304629 4.091756 -3.720440 6.056376 0.000000 0.000000 0.000000 7.585595 -9.295894 -78.389852 0.705101 -9.813124 -8.199324 0.000000 0.000000 0.000000 0.000000 0.000000 0.000000 -3.533171 -18.199167 21.798616 6.128687 -20.582688 -32.855005 0.000000 0.000000 0.000000 -8.114692 -0.364361 -1.003473 -2.734475 1.086637 2.116449 -6.033750 21.684336 -9.828088 0.000000 0.000000 0.000000 -12.520178 -0.645136 2.507795 3.350496 -1.117434 -3.900968 -2.358727 1.776580 0.323397 0.000000 0.000000 0.000000
0.243818 0.191501 0.000000 10.349312 -0.502565 -0.121882 0.000837 0.017500 0.085897 -10.789900 15.577338 0.236219 4.527830 -3.247725 6.300103 4.121926 -3.732189 6.049586 0.000000 0.000000 0.000000 7.361910 -9.008430 -78.474990 0.689221 -9.634592 -8.165451 0.000000 0.000000 0.000000 0.000000 0.000000 0.000000 -3.471769 -18.136152 21.503496 6.120046 -20.691418 -32.643681 0.000000 0.000000 0.000000 -8.082813 -0.369253 -1.094610 -2.699780 1.112853 2.191747 -6.616654 22.649277 -10.490440 0.000000 0.000000 0.000000 -12.687604 -0.645005 2.591772 3.588704 -1.168140 -4.104840 -2.509516 1.923507 0.337907 0.000000 0.000000 0.000000
0.278652 0.191282 0.000000 10.344998 -0.500038 -0.100956 0.000837 0.017485 0.085826 -10.789083 15.593455 0.217040 4.551256 -3.257618 6.290967 4.144472 -3.744026 6.038448 0.000000 0.000000 0.000000 7.037755 -8.609414 -78.490568 0.663565 -9.147431 -8.292478 0.000000 0.000000 0.000000 0.000000 0.000000 0.000000 -3.457079 -18.229273 21.306540 6.092708 -20.638551 -32.585290 0.000000 0.000000 0.000000 -8.041259 -0.372148 -1.163812 -2.743919 1.131262 2.225476 -7.183558 23.336354 -11.064292 0.000000 0.000000 0.000000 -12.844179 -0.650282 2.615417 3.738287 -1.191101 -4.201658 -2.677895 1.990634 0.364883 0.000000 0.000000 0.000000
0.299830 0.191275 0.000000 10.338286 -0.497665 -0.082427 0.000837 0.017462 0.085715 -10.789015 15.594768 0.200924 4.600447 -3.249613 6.268204 4.195605 -3.739945 6.013982 0.000000 0.000000 0.000000 6.513415 -7.981558 -78.398826 0.624118 -8.268433 -8.639116 0.000000 0.000000 0.000000 0.000000 0.000000 0.000000 -3.444914 -18.404830 21.032553 5.974994 -20.342750 -32.436951 0.000000 0.000000 0.000000 -8.056489 -0.376680 -1.218765 -2.722275 1.152011 2.283533 -7.678796 23.775986 -11.520053 0.000000 0.000000 0.000000 -13.116914 -0.662709 2.624429 4.016748 -1.198843 -4.251425 -3.050215 2.077867 0.431423 0.000000 0.000000 0.000000
0.313051 0.191396 0.000000 10.333356 -0.495125 -0.061675 0.000837 0.017446 0.085633 -10.789852 15.578228 0.182275 4.680411 -3.224246 6.232602 4.280147 -3.721072 5.976751 0.000000 0.000000 0.000000 5.935325 -7.285066 -78.314520 0.552368 -7.067490 -8.931488 0.000000 0.000000 0.000000 0.000000 0.000000 0.000000 -3.418127 -18.590893 20.663730 5.858232 -20.148438 -32.131750 0.000000 0.000000 0.000000 -8.102622 -0.382852 -1.276309 -2.696381 1.174480 2.347149 -7.933064 23.996886 -11.753941 0.000000 0.000000 0.000000 -13.438509 -0.677018 2.637780 4.299371 -1.205369 -4.297613 -3.426502 2.148219 0.500605 0.000000 0.000000 0.000000
0.323833 0.191486 0.000000 10.326936 -0.494307 -0.056995 0.000836 0.017424 0.085527 -10.796006 15.456773 0.180225 4.747160 -3.168889 6.219717 4.353811 -3.672455 5.965627 0.000000 0.000000 0.000000 5.774741 -7.099451 -78.225531 0.543035 -6.766813 -9.167651 0.000000 0.000000 0.000000 0.000000 0.000000 0.000000 -3.411666 -18.752089 20.448576 5.740677 -19.872174 -31.943504 0.000000 0.000000 0.000000 -8.116853 -0.385175 -1.299838 -2.674744 1.187310 2.385469 -8.076686 24.046382 -11.863147 0.000000 0.000000 0.000000 -13.554877 -0.680371 2.659177 4.407870 -1.211104 -4.328067 -3.503509 2.113180 0.520842 0.000000 0.000000 0.000000
0.335038 0.191458 0.000000 10.326382 -0.493253 -0.047773 0.000836 0.017422 0.085518 -10.795510 15.466569 0.171395 4.811885 -3.133702 6.201443 4.423338 -3.643257 5.947508 0.000000 0.000000 0.000000 5.656260 -6.959302 -78.182140 0.536213 -6.582388 -9.304782 0.000000 0.000000 0.000000 0.000000 0.000000 0.000000 -3.417421 -18.913778 20.307679 5.664864 -19.734705 -31.755208 0.000000 0.000000 0.000000 -8.130390 -0.389245 -1.348770 -2.664876 1.215966 2.460148 -8.134055 24.127823 -11.925976 0.000000 0.000000 0.000000 -13.665963 -0.686043 2.656894 4.488186 -1.209390 -4.327717 -3.643768 2.099129 0.551555 0.000000 0.000000 0.000000
0.350169 0.191369 0.000000 10.325709 -0.491714 -0.034255 0.000835 0.017420 0.085507 -10.794890 15.478821 0.158425 4.879604 -3.092715 6.194281 4.495826 -3.609438 5.941026 0.000000 0.000000 0.000000 5.571947 -6.857454 -78.167587 0.534211 -6.522754 -9.354162 0.000000 0.000000 0.000000 0.000000 0.000000 0.000000 -3.430894 -19.071456 20.217748 5.607954 -19.624779 -31.622680 0.000000 0.000000 0.000000 -8.139037 -0.392744 -1.392740 -2.637173 1.235226 2.516430 -8.172300 24.232785 -11.983629 0.000000 0.000000 0.000000 -13.674449 -0.689733 2.627306 4.492771 -1.203002 -4.303345 -3.793491 2.100606 0.582278 0.000000 0.000000 0.000000
0.366631 0.191282 0.000000 10.328232 -0.490980 -0.026632 0.000836 0.017429 0.085548 -10.795702 15.462766 0.150469 4.980237 -3.031470 6.201860 4.602452 -3.560287 5.949782 0.000000 0.000000 0.000000 5.638563 -6.937760 -78.180616 0.553136 -6.760324 -9.344777 0.000000 0.000000 0.000000 0.000000 0.000000 0.000000 -3.429824 -19.123810 20.156247 5.590384 -19.623272 -31.530809 0.000000 0.000000 0.000000 -8.170317 -0.395487 -1.410147 -2.596068 1.239797 2.539800 -8.158046 24.311964 -11.998866 0.000000 0.000000 0.000000 -13.717034 -0.693514 2.611983 4.533926 -1.199110 -4.291485 -3.809615 2.124053 0.582634 0.000000 0.000000 0.000000
